<?xml version="1.0" standalone="no"?>
<!DOCTYPE svg PUBLIC "-//W3C//DTD SVG 20010904//EN"
 "http://www.w3.org/TR/2001/REC-SVG-20010904/DTD/svg10.dtd">
<svg version="1.0" xmlns="http://www.w3.org/2000/svg"
 width="512.000000pt" height="160.000000pt" viewBox="0 0 512.000000 160.000000"
 preserveAspectRatio="xMidYMid meet">

<g transform="translate(0.000000,160.000000) scale(0.100000,-0.100000)"
fill="#000000" stroke="none">
<path d="M0 800 l0 -800 1593 0 c1031 0 1587 4 1577 10 -9 6 -10 10 -3 10 6 0
15 -4 18 -10 3 -5 26 -10 51 -10 32 0 44 4 44 15 0 8 -7 15 -15 15 -8 0 -15
-4 -15 -10 0 -5 -8 -10 -17 -10 -15 0 -16 2 -3 10 13 8 12 10 -2 10 -10 0 -18
4 -18 9 0 5 10 7 23 4 21 -4 22 -4 3 11 -11 9 -15 16 -9 16 7 0 15 -4 18 -10
3 -5 15 -10 26 -10 10 0 19 -6 19 -12 0 -8 5 -6 10 4 6 9 22 16 38 16 50 0
506 33 562 41 82 13 12 13 -145 0 -269 -22 -315 -24 -315 -17 0 5 5 8 12 8 18
0 0 13 -22 17 -11 2 -20 -2 -20 -7 0 -6 -11 -10 -24 -10 -14 0 -28 -5 -31 -10
-4 -6 -11 -7 -18 -3 -7 4 -4 9 9 14 11 5 -15 8 -63 7 -45 0 -87 3 -95 7 -7 3
-4 -1 6 -9 34 -27 12 -26 -31 2 -42 27 -49 42 -22 50 11 3 12 2 0 -6 -24 -17
7 -25 112 -29 69 -3 97 -1 92 6 -3 6 1 11 9 11 10 0 13 -6 10 -15 -5 -11 -2
-13 10 -9 9 3 16 10 16 15 0 5 17 6 39 3 24 -4 41 -2 45 5 4 7 -1 11 -13 11
-27 0 -27 20 -1 27 40 10 8 22 -45 17 -32 -3 -55 -2 -55 4 0 10 51 21 110 23
l35 2 -35 7 -35 7 43 2 c24 0 41 5 38 10 -7 10 262 3 318 -9 40 -9 40 -9 -13
-6 -48 3 -53 2 -36 -10 10 -8 40 -14 67 -14 71 0 256 -9 313 -15 95 -10 170
-22 141 -24 -16 0 -27 -4 -23 -7 5 -5 36 -9 100 -13 38 -2 34 -27 -5 -35 -63
-13 -113 -20 -148 -21 -19 0 -38 -3 -41 -8 -3 -4 -57 -12 -120 -17 -144 -12
-181 -19 -174 -31 4 -5 -6 -9 -22 -10 -15 0 -37 -4 -48 -9 -11 -5 261 -9 638
-9 l657 -1 0 255 c0 158 -4 255 -10 255 -5 0 -7 -7 -4 -15 5 -11 -1 -15 -17
-15 l-24 1 28 24 27 24 0 305 c-1 295 -2 306 -21 320 -12 8 -16 17 -10 20 5 4
14 -2 20 -11 8 -14 10 -10 11 25 0 23 -3 42 -7 42 -14 0 -30 -15 -35 -30 -3
-9 -7 -5 -10 12 -3 15 -1 25 4 22 18 -12 48 8 48 32 0 13 -5 24 -11 24 -5 0
-7 -4 -4 -10 3 -6 -1 -7 -10 -4 -14 6 -13 8 5 21 22 15 27 52 9 70 -8 8 -8 13
0 17 14 9 14 53 1 61 -15 10 -40 -14 -33 -31 4 -12 8 -12 19 3 13 16 13 15 3
-9 -9 -21 -19 -28 -41 -28 -17 0 -31 6 -33 15 -3 8 -7 21 -9 29 -3 9 -13 12
-25 9 -16 -4 -19 -9 -11 -23 13 -24 13 -30 0 -30 -5 0 -10 8 -11 18 0 14 -2
14 -7 2 -4 -8 -18 -16 -32 -18 -25 -3 -25 -3 -4 12 12 9 25 32 28 52 7 35 8
35 27 18 15 -13 22 -15 31 -6 7 7 17 12 23 12 5 0 3 -5 -5 -10 -11 -7 -12 -12
-4 -20 14 -14 71 34 66 56 -2 8 3 12 11 8 10 -3 14 4 14 25 0 27 -2 29 -14 13
-8 -9 -12 -11 -8 -4 3 6 2 12 -3 12 -6 0 -13 -8 -16 -17 -6 -15 -8 -15 -24 1
-14 14 -15 18 -3 25 8 5 12 15 9 23 -6 15 -58 23 -58 9 0 -5 -3 -16 -6 -25 -4
-11 0 -16 12 -16 29 0 7 -12 -37 -20 -31 -6 -46 -4 -56 5 -20 21 -16 25 17 19
21 -5 30 -3 30 6 0 8 -3 11 -6 7 -3 -3 -15 3 -27 14 -23 21 -77 25 -95 7 -9
-9 -12 -9 -12 0 0 17 -90 15 -114 -3 -12 -9 -17 -22 -14 -39 4 -17 0 -26 -11
-29 -11 -3 -9 -5 5 -6 12 0 29 -11 38 -23 14 -20 15 -21 10 -3 -3 11 -2 16 3
10 4 -5 26 -19 48 -30 41 -20 80 -21 102 -3 7 6 13 6 13 2 0 -5 -9 -15 -21
-22 l-20 -13 22 -18 22 -18 -30 -6 c-28 -5 -30 -9 -30 -47 0 -23 -6 -47 -12
-53 -7 -7 -11 -7 -9 -2 2 6 0 11 -4 13 -18 5 -28 1 -28 -13 0 -11 -7 -14 -25
-9 -32 8 -34 -17 -3 -48 11 -11 21 -33 22 -47 1 -21 6 -26 28 -26 22 1 25 -2
15 -14 -9 -11 -9 -13 0 -8 6 4 14 3 18 -2 3 -6 12 -8 20 -4 24 9 17 -15 -9
-33 -23 -14 -27 -52 -5 -38 5 3 7 9 4 14 -3 5 0 12 6 16 8 5 10 -1 7 -20 -4
-19 2 -33 20 -51 14 -14 22 -28 19 -32 -8 -8 32 -43 48 -43 7 0 19 -7 26 -17
13 -15 12 -15 -9 -4 -19 10 -23 9 -30 -9 -7 -18 -10 -19 -19 -8 -5 7 -13 24
-16 38 -3 14 -12 33 -19 43 -13 17 -14 16 -16 -12 -2 -22 2 -31 13 -31 17 0
19 -9 5 -30 -5 -8 -12 -11 -16 -7 -4 4 -13 2 -21 -4 -10 -9 -13 -8 -13 0 0 23
-26 39 -53 34 -15 -3 -27 -9 -27 -13 0 -5 10 -6 23 -4 l22 5 -23 -13 c-19 -9
-25 -9 -32 2 -4 7 -6 19 -3 27 9 23 -15 14 -36 -13 -28 -35 -27 -37 14 -57 23
-11 35 -24 35 -37 0 -11 5 -20 10 -20 18 0 10 -18 -10 -23 -26 -7 -26 -34 0
-42 15 -5 19 -14 17 -35 -1 -16 1 -29 6 -29 56 -5 57 -4 57 53 0 64 15 75 50
39 17 -18 23 -35 22 -59 -2 -19 2 -34 8 -34 18 0 11 -18 -17 -45 -23 -20 -38
-25 -80 -25 -30 0 -53 5 -53 10 0 7 -6 7 -19 1 -15 -8 -20 -7 -25 5 -3 9 -12
14 -20 11 -17 -7 -26 40 -26 148 l0 80 -65 2 c-36 2 -66 -1 -66 -5 -6 -30 -5
-53 1 -57 9 -6 0 -64 -11 -71 -5 -3 -9 12 -10 33 0 21 -4 47 -9 58 -6 13 -9
-7 -9 -62 -1 -49 3 -83 9 -83 6 0 10 9 10 20 0 12 7 20 18 20 14 0 15 -2 2
-10 -11 -7 -11 -10 -2 -10 7 0 10 -5 7 -10 -9 -15 13 -20 115 -30 11 -1 10 -3
-4 -9 -10 -4 -80 -5 -155 -2 -75 2 -158 5 -184 5 l-49 1 0 -83 c-1 -45 1 -85
4 -87 3 -3 17 -1 32 5 21 8 27 7 23 -2 -2 -7 -10 -12 -16 -10 -7 1 -9 -2 -6
-8 4 -6 14 -9 22 -5 13 4 14 3 3 -10 -15 -18 -31 -20 -27 -3 1 7 -5 13 -13 13
-10 0 -15 -11 -16 -38 -1 -44 -8 -54 -28 -38 -11 9 -15 9 -19 -1 -4 -10 -6
-10 -6 0 -1 7 -14 12 -31 12 -39 0 -41 27 -2 33 l27 4 -27 2 c-16 0 -28 5 -28
10 0 5 8 8 18 7 19 -1 19 -1 21 105 1 70 3 77 24 84 32 10 -48 22 -205 29
-104 4 -128 3 -128 -8 0 -8 9 -16 21 -19 19 -5 21 -11 17 -81 -3 -66 -1 -76
14 -76 9 0 19 6 21 13 3 6 6 -5 6 -25 1 -33 -2 -38 -21 -39 -21 -1 -21 -2 -3
-6 36 -9 40 -23 6 -23 -19 0 -30 -4 -26 -10 3 -6 -3 -10 -13 -10 -20 0 -36 25
-26 41 3 5 -7 9 -23 10 -25 0 -26 1 -8 9 11 5 14 9 7 9 -11 1 -11 3 0 14 9 10
13 38 11 98 -1 46 -3 89 -3 95 0 8 -11 8 -38 1 -44 -12 -105 -2 -81 14 9 5
-21 9 -83 9 -54 0 -101 0 -105 0 -12 0 -15 -112 -4 -123 8 -8 11 -7 11 1 0 7
5 12 11 12 5 0 8 -3 6 -7 -3 -5 5 -8 16 -9 120 -6 141 -24 28 -24 -80 0 -81 0
-81 -25 0 -25 1 -25 85 -25 82 0 91 3 86 33 0 4 3 7 9 7 5 0 11 26 13 58 l3
57 2 -62 c1 -34 7 -63 12 -65 6 -2 13 -19 16 -39 7 -44 -2 -48 -131 -50 -83
-2 -86 -3 -35 -9 l55 -7 -50 -3 c-35 -3 -19 -6 55 -10 89 -5 95 -6 37 -8 -50
-1 -69 -6 -73 -17 -4 -9 -19 -15 -42 -15 -19 0 -32 -3 -29 -7 12 -11 -25 -43
-47 -42 -17 1 -18 2 -3 6 11 3 17 14 17 33 0 22 -4 28 -15 24 -8 -4 -15 -5
-16 -3 0 2 -2 33 -5 69 -2 36 -6 80 -9 98 -2 18 -1 55 2 83 5 39 10 49 24 49
11 0 19 7 19 15 0 11 -10 15 -37 15 -21 -1 -110 3 -198 9 -88 5 -289 13 -447
17 l-287 7 4 -151 c2 -84 -1 -155 -6 -158 -5 -3 -5 -13 1 -23 5 -10 7 -21 4
-23 -2 -3 -7 -16 -9 -28 -9 -46 -12 -29 -13 57 0 48 0 141 -1 206 l-1 117 -55
0 c-41 0 -55 4 -55 14 0 8 -3 22 -7 32 -5 15 -2 16 30 10 37 -7 42 -3 38 32
-1 6 6 12 16 13 15 0 15 2 3 7 -24 11 -21 42 4 43 16 1 17 2 4 6 -10 3 -18 16
-20 36 -3 31 -5 32 -55 35 -29 2 -53 7 -53 13 0 5 7 9 15 9 8 0 15 5 15 10 0
6 -7 10 -16 10 -10 0 -14 5 -10 15 3 9 -1 18 -9 21 -12 5 -15 26 -15 102 0 89
-1 94 -16 76 -13 -16 -15 -16 -10 -2 3 10 1 20 -3 23 -11 6 -21 -43 -22 -109
0 -54 -17 -114 -18 -69 -1 13 -10 32 -21 43 -21 21 -27 35 -11 25 19 -11 19
12 1 41 -20 29 -65 50 -76 33 -8 -14 -24 -11 -19 4 3 6 -2 30 -10 52 -8 22
-14 32 -15 22 0 -10 -4 -15 -10 -12 -15 9 -11 -17 5 -39 14 -19 12 -36 -5 -36
-4 0 -6 9 -3 20 3 11 0 20 -6 20 -6 0 -11 -10 -11 -22 0 -18 -2 -20 -9 -8 -6
8 -7 18 -4 24 3 5 1 6 -5 2 -7 -4 -12 -14 -12 -23 0 -9 -7 -21 -16 -27 -19
-14 -26 -68 -11 -78 7 -4 20 1 31 10 18 16 18 16 8 -4 -6 -12 -8 -25 -4 -30 4
-5 3 -6 -2 -2 -12 10 -34 -14 -41 -45 -4 -15 -13 -31 -21 -38 -17 -14 -17 -19
-3 -56 10 -27 11 -27 25 -9 20 29 29 11 17 -34 -6 -24 -6 -37 -1 -33 6 3 4 -5
-3 -18 -17 -32 -19 -61 -5 -78 9 -12 8 -13 -7 -8 -11 4 -20 1 -23 -8 -5 -12
-25 -15 -89 -15 -91 0 -119 -6 -108 -24 4 -6 0 -6 -9 2 -13 10 -17 10 -21 0
-4 -10 -6 -10 -6 0 -1 9 -34 12 -131 12 l-130 0 19 -37 c17 -35 18 -48 9 -148
-5 -60 -10 -116 -10 -122 -1 -7 -8 -13 -15 -13 -8 0 -11 4 -8 10 3 5 -4 17
-15 27 -20 17 -20 25 -14 144 l6 126 -49 6 c-52 6 -66 1 -43 -13 11 -7 16 -37
20 -117 4 -80 8 -107 18 -105 7 1 18 -9 24 -23 6 -14 15 -25 20 -25 4 0 8 -13
8 -30 0 -26 -4 -30 -26 -30 -14 0 -23 4 -19 10 3 6 2 10 -4 10 -5 0 -12 13
-16 30 -4 16 -13 33 -20 38 -11 5 -15 37 -18 122 l-3 115 -2 -132 c-2 -116 0
-132 13 -126 16 6 16 -5 0 -70 -8 -29 -29 -36 -39 -12 -3 8 -16 15 -28 16 -13
0 -17 3 -10 6 16 6 -3 33 -24 33 -10 0 -14 14 -14 49 0 58 7 81 25 81 17 0 29
35 18 52 -11 19 -4 50 15 64 15 11 15 16 -2 67 -14 41 -16 59 -8 74 7 13 8 23
1 30 -5 5 -10 35 -10 66 -1 37 -5 56 -13 54 -6 -1 -12 10 -14 26 -2 15 -8 25
-13 22 -5 -4 -9 1 -9 9 0 12 -10 16 -35 16 -24 0 -35 -5 -35 -15 0 -9 -9 -15
-25 -15 -15 0 -25 6 -25 14 0 9 -9 13 -25 11 -16 -1 -25 3 -25 11 0 22 -38 16
-45 -6 -10 -32 -48 -26 -62 10 -6 17 -22 34 -35 39 -12 4 -22 12 -21 17 1 5
-5 8 -14 6 -11 -2 -13 2 -8 17 3 12 2 21 -4 21 -5 0 -12 -8 -14 -17 -4 -16 -5
-16 -6 -2 -1 17 -31 36 -31 20 0 -5 6 -11 13 -14 8 -3 6 -10 -9 -23 -24 -22
-41 -59 -21 -48 7 5 6 0 -3 -10 -8 -10 -15 -30 -15 -45 -1 -31 -25 -71 -42
-71 -8 0 -12 16 -11 46 0 30 4 41 9 33 6 -10 9 -7 9 12 0 14 5 30 12 37 9 9 9
12 1 12 -7 0 -14 -4 -18 -10 -7 -12 -65 -8 -65 5 0 6 -5 2 -11 -7 -5 -10 -15
-18 -20 -18 -6 0 -7 5 -4 10 3 6 0 10 -8 10 -18 0 -26 -30 -22 -76 2 -18 -2
-34 -7 -34 -6 0 -8 -6 -5 -14 3 -8 -1 -20 -9 -26 -8 -7 -14 -21 -14 -32 0 -10
-4 -16 -10 -13 -5 3 -10 -1 -10 -10 0 -10 -5 -13 -11 -9 -8 5 -10 -1 -6 -18 7
-27 -15 -58 -27 -39 -3 5 0 11 6 14 9 3 6 10 -10 22 -12 9 -22 21 -22 27 0 7
6 6 15 -2 8 -7 15 -9 15 -6 0 13 -50 116 -55 116 -4 0 -3 -6 0 -12 4 -7 0 -4
-9 6 -8 10 -13 23 -10 27 3 5 -2 9 -11 9 -9 0 -13 -4 -10 -10 3 -5 -4 -29 -17
-52 -12 -24 -21 -53 -19 -65 2 -23 -24 -60 -32 -46 -6 10 -22 145 -19 157 2 5
-5 17 -14 27 -14 16 -15 20 -1 33 8 8 17 13 20 9 3 -3 19 4 35 16 17 12 34 21
40 21 5 0 15 7 22 15 9 11 10 15 1 15 -18 0 14 30 36 35 36 7 279 66 311 74
32 9 32 9 32 -27 0 -53 7 -35 13 33 3 32 10 61 16 63 6 2 11 10 11 18 0 8 9
14 19 14 11 0 54 18 95 41 95 51 157 59 276 35 91 -19 130 -39 130 -67 0 -11
3 -19 8 -19 21 0 302 31 332 37 19 4 43 6 53 5 9 0 17 3 17 8 0 4 17 6 39 3
23 -3 41 -1 45 6 4 6 16 11 28 11 17 0 18 3 8 15 -7 8 -10 21 -7 29 4 11 1 13
-11 9 -15 -6 -15 -5 -3 10 9 11 10 17 2 17 -19 0 -26 -5 -23 -14 2 -5 -4 -4
-13 4 -8 7 -14 20 -13 29 2 9 -3 15 -9 13 -17 -3 -17 25 0 31 6 2 -3 7 -20 11
-18 4 -33 13 -34 19 0 7 -3 5 -7 -4 -5 -12 -13 -14 -27 -8 -15 6 -16 8 -4 8
31 2 30 29 -1 40 -24 8 -30 7 -33 -7 -4 -15 -5 -15 -6 1 -1 19 -26 23 -37 6
-4 -8 -9 -7 -15 2 -6 9 -12 10 -16 4 -5 -5 -26 -10 -48 -10 -22 1 -47 -3 -56
-7 -12 -5 -18 -2 -22 12 -5 19 -23 19 -791 20 l-786 0 0 -800z m1567 775 c0
-8 -4 -15 -9 -15 -4 0 -8 7 -8 15 0 8 4 15 8 15 5 0 9 -7 9 -15z m-1107 -5 c0
-5 -2 -10 -4 -10 -3 0 -8 5 -11 10 -3 6 -1 10 4 10 6 0 11 -4 11 -10z m1080 0
c0 -5 -2 -10 -4 -10 -3 0 -8 5 -11 10 -3 6 -1 10 4 10 6 0 11 -4 11 -10z
m-173 -26 c-3 -3 -12 -4 -19 -1 -8 3 -5 6 6 6 11 1 17 -2 13 -5z m-87 -24 c-6
-11 -13 -20 -16 -20 -3 0 -2 5 1 10 3 6 0 10 -7 11 -10 0 12 14 30 18 1 1 -2
-8 -8 -19z m3590 16 c0 -3 -4 -16 -9 -30 -7 -17 -7 -26 2 -30 7 -2 -1 -5 -18
-5 -16 0 -25 3 -19 7 6 4 14 19 18 35 3 15 11 27 16 27 6 0 10 -2 10 -4z m-94
-43 c-10 -10 -19 5 -10 18 6 11 8 11 12 0 2 -7 1 -15 -2 -18z m-4419 -55 c-3
-8 -6 -5 -6 6 -1 11 2 17 5 13 3 -3 4 -12 1 -19z m4583 -8 c0 -5 -3 -10 -7
-11 -5 0 -16 -2 -25 -4 -20 -4 -24 11 -5 18 21 9 37 7 37 -3z m-4810 -60 c1
23 2 23 10 5 8 -19 9 -19 9 -1 1 11 4 17 7 13 3 -3 3 -14 0 -24 -7 -23 -66
-28 -66 -6 0 8 5 11 10 8 6 -3 10 2 11 12 1 13 3 11 9 -7 l8 -25 2 25z m545 0
c-3 -6 9 -24 27 -40 32 -30 32 -31 11 -36 -13 -4 -21 -10 -18 -13 2 -4 -2 -8
-10 -8 -11 0 -12 4 -3 14 16 20 5 25 -27 13 -23 -9 -26 -8 -21 6 4 10 2 14 -6
11 -7 -2 -12 -15 -11 -28 2 -20 1 -21 -7 -7 -14 22 4 60 38 81 32 19 35 20 27
7z m4360 -10 c-3 -5 -11 -10 -16 -10 -6 0 -7 5 -4 10 3 6 11 10 16 10 6 0 7
-4 4 -10z m-4939 -34 c9 -3 20 -4 24 -1 5 3 11 1 15 -5 4 -6 11 -8 16 -5 5 4
9 -1 9 -10 0 -17 -13 -16 -72 7 -32 12 -30 10 -21 35 7 16 8 16 11 1 2 -9 10
-19 18 -22z m4837 27 c-20 -8 -15 -37 8 -51 17 -11 20 -11 14 0 -7 11 -5 11 6
0 9 -8 10 -15 4 -20 -6 -4 -17 -16 -25 -26 -14 -18 -13 -19 2 -13 11 4 22 -1
31 -14 8 -11 24 -21 36 -24 33 -6 41 -14 41 -42 l0 -25 -36 21 c-21 13 -44 19
-55 16 -11 -4 -19 -2 -19 3 0 5 -10 13 -22 17 -20 6 -20 8 -6 12 16 4 16 6 3
19 -8 9 -23 13 -33 10 -13 -4 -18 0 -19 14 -1 12 4 20 13 20 10 0 13 7 8 24
-8 33 12 66 39 65 12 0 16 -3 10 -6z m-4879 -39 c5 -14 4 -15 -9 -4 -17 14
-19 20 -6 20 5 0 12 -7 15 -16z m183 -30 c-3 -3 -12 -4 -19 -1 -8 3 -5 6 6 6
11 1 17 -2 13 -5z m163 -9 c-14 -17 -45 -21 -35 -5 4 6 10 8 15 5 5 -3 11 -1
15 5 3 5 9 10 12 10 3 0 0 -7 -7 -15z m320 -50 c0 -5 -5 -3 -10 5 -5 8 -10 20
-10 25 0 6 5 3 10 -5 5 -8 10 -19 10 -25z m4104 19 c4 -9 4 -19 1 -22 -3 -3
-5 0 -5 8 0 9 -9 11 -32 6 -31 -5 -32 -5 -14 9 26 19 42 19 50 -1z m-4689 -12
c-3 -3 -11 0 -18 7 -9 10 -8 11 6 5 10 -3 15 -9 12 -12z m4825 -132 c0 -5 -2
-10 -4 -10 -3 0 -8 5 -11 10 -3 6 -1 10 4 10 6 0 11 -4 11 -10z m-5 -30 c3 -5
2 -10 -4 -10 -5 0 -13 5 -16 10 -3 6 -2 10 4 10 5 0 13 -4 16 -10z m118 -12
c4 -10 8 -10 15 1 7 9 12 10 16 2 4 -6 1 -11 -6 -11 -10 0 -9 -3 2 -11 13 -9
12 -10 -2 -5 -10 3 -18 1 -18 -4 0 -6 -5 -10 -11 -10 -5 0 -7 5 -4 10 3 6 -1
10 -9 10 -9 0 -16 7 -16 15 0 18 26 20 33 3z m-4713 -78 c0 -5 -5 -10 -11 -10
-5 0 -7 5 -4 10 3 6 8 10 11 10 2 0 4 -4 4 -10z m-53 -16 c-3 -3 -12 -4 -19
-1 -8 3 -5 6 6 6 11 1 17 -2 13 -5z m907 -2 c2 -4 -5 -9 -17 -9 -17 -2 -19 0
-7 7 18 12 18 12 24 2z m-164 -11 c0 -6 -4 -13 -10 -16 -5 -3 -10 1 -10 9 0 9
5 16 10 16 6 0 10 -4 10 -9z m-190 -11 c0 -5 -5 -10 -11 -10 -5 0 -7 5 -4 10
3 6 8 10 11 10 2 0 4 -4 4 -10z m-313 -39 c0 -11 -5 -18 -9 -15 -4 3 -5 11 -1
19 7 21 12 19 10 -4z m303 5 c0 -16 -18 -31 -27 -22 -8 8 5 36 17 36 5 0 10
-6 10 -14z m3945 -16 c-3 -5 -11 -10 -16 -10 -6 0 -7 5 -4 10 3 6 11 10 16 10
6 0 7 -4 4 -10z m-2525 -40 c0 -5 -9 -10 -21 -10 -11 0 -17 5 -14 10 3 6 13
10 21 10 8 0 14 -4 14 -10z m-1441 -27 c-7 -10 -14 -20 -16 -22 -1 -1 -7 0
-13 4 -8 5 -5 11 7 21 25 19 38 17 22 -3z m1428 -35 c-3 -8 -6 -5 -6 6 -1 11
2 17 5 13 3 -3 4 -12 1 -19z m-1804 -23 c4 -8 2 -17 -3 -20 -6 -4 -10 3 -10
14 0 25 6 27 13 6z m902 -65 c6 0 11 -6 13 -14 2 -9 -3 -16 -12 -16 -9 0 -16
3 -16 8 0 4 -3 18 -5 32 -4 18 -3 20 3 7 4 -10 12 -18 17 -17z m1736 -142 c0
-68 4 -105 8 -93 5 11 7 22 6 25 -2 3 31 3 72 2 55 -3 78 0 84 10 6 10 9 8 9
-7 0 -11 3 -30 6 -42 6 -23 5 -23 -90 -23 -89 0 -96 -1 -96 -20 0 -18 7 -20
98 -22 l97 -2 -97 -3 c-54 -2 -98 -7 -98 -11 0 -4 32 -5 71 -4 39 2 69 0 66
-5 -6 -10 -130 -16 -157 -8 -19 6 -20 16 -20 161 0 147 1 154 20 154 19 0 20
-7 21 -112z m1072 95 c-7 -2 -21 -2 -30 0 -10 3 -4 5 12 5 17 0 24 -2 18 -5z
m-3609 -64 c-3 -6 -3 -14 2 -18 5 -3 6 -33 3 -66 l-6 -60 -1 59 c-1 33 -5 56
-9 53 -3 -4 -6 -26 -5 -49 1 -23 0 -39 -3 -36 -3 2 -6 30 -8 61 -1 43 1 57 13
61 8 2 16 4 18 5 2 0 0 -4 -4 -10z m4151 -135 c-13 -14 -15 -11 -15 29 0 25
-3 54 -6 64 -6 16 -5 16 10 -2 16 -20 17 -19 15 10 -1 17 0 35 2 40 2 6 4 -20
6 -58 3 -51 0 -71 -12 -83z m-4276 74 c1 -10 5 -18 10 -18 4 0 6 11 4 24 -5
26 6 37 43 41 18 2 24 -1 20 -12 -3 -8 -7 -29 -7 -46 -2 -30 -2 -29 -9 8 l-7
40 -2 -37 c-1 -27 -6 -38 -16 -38 -8 0 -15 -4 -15 -10 0 -5 5 -10 12 -10 6 0
8 -3 4 -7 -4 -4 -36 -8 -71 -8 l-65 -1 0 58 c0 62 5 71 20 36 9 -23 9 -23 9 3
1 14 4 29 7 32 10 10 63 -36 63 -55z m264 51 c20 16 25 4 19 -44 l-6 -40 -7
35 -6 35 -3 -40 -3 -40 -7 40 -7 40 -2 -42 c-1 -49 -9 -73 -24 -73 -7 0 -7 4
1 12 16 16 16 95 0 101 -10 4 -9 8 2 16 10 7 17 6 21 -1 6 -9 11 -8 22 1z
m4059 -156 c14 -17 6 -25 -16 -17 -10 4 -15 13 -12 21 3 8 7 49 8 91 l2 77 3
-80 c2 -43 9 -85 15 -92z m-4122 141 c0 -2 -9 -4 -20 -4 -11 0 -20 4 -20 9 0
5 9 7 20 4 11 -3 20 -7 20 -9z m170 6 c0 -5 -4 -10 -10 -10 -5 0 -10 5 -10 10
0 6 5 10 10 10 6 0 10 -4 10 -10z m4217 -27 c-3 -10 -5 -4 -5 12 0 17 2 24 5
18 2 -7 2 -21 0 -30z m-4181 18 c10 8 14 8 14 1 0 -6 7 -9 15 -6 20 8 21 -49
1 -69 -11 -11 -12 -17 -3 -26 8 -8 8 -11 0 -11 -6 0 -18 7 -26 15 -8 8 -17 11
-21 8 -3 -4 -6 18 -5 48 0 30 3 48 6 41 4 -10 8 -10 19 -1z m136 -5 c18 2 18
-14 2 -65 -2 -7 1 -20 8 -28 7 -9 8 -17 2 -21 -5 -4 -9 -26 -9 -50 0 -39 3
-44 28 -49 15 -3 27 -7 27 -10 0 -14 -22 -43 -33 -43 -8 0 -8 3 1 9 19 11 15
24 -11 38 -34 19 -57 16 -57 -8 0 -11 -4 -17 -10 -14 -15 9 -12 31 6 49 14 14
11 20 -8 17 -3 0 -5 7 -3 17 2 9 4 19 4 21 1 3 7 -3 14 -14 10 -12 16 -14 21
-7 4 7 -3 17 -18 23 -14 7 -23 16 -20 21 3 4 8 21 11 36 3 15 6 34 8 42 2 8 4
24 4 35 1 12 4 16 9 9 4 -6 15 -10 24 -8z m-215 -18 c-3 -8 -6 -5 -6 6 -1 11
2 17 5 13 3 -3 4 -12 1 -19z m163 -25 c0 -14 -6 -23 -15 -23 -10 0 -14 7 -11
23 3 12 5 29 5 37 2 24 21 -10 21 -37z m-343 -15 c-2 -13 -4 -5 -4 17 -1 22 1
32 4 23 2 -10 2 -28 0 -40z m20 -15 c-2 -16 -4 -5 -4 22 0 28 2 40 4 28 2 -13
2 -35 0 -50z m20 0 c-2 -16 -4 -5 -4 22 0 28 2 40 4 28 2 -13 2 -35 0 -50z
m30 35 c-3 -7 -5 -2 -5 12 0 14 2 19 5 13 2 -7 2 -19 0 -25z m3750 26 c-3 -3
-12 -4 -19 -1 -8 3 -5 6 6 6 11 1 17 -2 13 -5z m-4263 -13 c3 -5 -1 -11 -9
-14 -9 -4 -12 -1 -8 9 6 16 10 17 17 5z m3283 -44 c13 -10 23 -27 23 -38 0
-15 -7 -19 -35 -19 l-35 0 0 58 c1 48 2 54 12 37 7 -11 22 -28 35 -38z m1508
43 c-3 -5 0 -10 8 -10 8 0 20 -7 27 -15 10 -12 10 -18 0 -30 -7 -8 -9 -15 -6
-15 4 0 1 -7 -8 -15 -22 -22 -26 -19 -26 19 0 24 -5 35 -17 38 -15 3 -15 4 1
21 19 19 31 23 21 7z m-414 -37 c1 -86 6 -115 18 -122 9 -6 10 -10 2 -15 -6
-4 -9 -12 -6 -17 4 -5 2 -9 -4 -9 -5 0 -13 30 -16 68 -4 37 -13 82 -21 100
-12 30 -12 32 7 32 15 0 19 -7 20 -37z m-3725 -50 c-1 -1 -11 0 -22 3 -17 4
-19 11 -15 37 l5 32 7 -30 7 -30 2 35 2 35 8 -40 c4 -22 7 -41 6 -42z m341 55
c-3 -8 -6 -5 -6 6 -1 11 2 17 5 13 3 -3 4 -12 1 -19z m550 -18 c7 0 13 -9 13
-20 0 -16 -7 -20 -30 -20 -33 0 -33 1 -23 51 6 31 7 32 16 11 6 -12 16 -22 24
-22z m120 -22 c-2 -13 -4 -3 -4 22 0 25 2 35 4 23 2 -13 2 -33 0 -45z m2540
56 c-3 -3 -12 -4 -19 -1 -8 3 -5 6 6 6 11 1 17 -2 13 -5z m-3282 -18 c-11 -8
-24 -12 -29 -8 -5 3 -1 9 10 13 31 12 39 10 19 -5z m1976 -26 c5 0 9 -9 9 -20
0 -16 -7 -20 -30 -20 -27 0 -30 3 -30 30 0 35 33 61 38 29 2 -10 8 -19 13 -19z
m1545 -13 c9 -16 13 -31 10 -35 -3 -3 -6 0 -6 6 0 6 -10 20 -22 32 -12 11 -18
20 -14 20 5 0 2 8 -5 18 -13 16 -12 16 4 3 10 -8 25 -28 33 -44z m-1616 -2 c0
-15 -6 -25 -15 -25 -8 0 -12 6 -9 14 4 10 -5 18 -28 24 l-33 9 25 11 c33 13
60 -2 60 -33z m1140 15 c0 -20 -5 -30 -15 -30 -10 0 -15 10 -15 30 0 20 5 30
15 30 10 0 15 -10 15 -30z m-2160 -17 c0 -9 -16 -13 -46 -13 -53 0 -58 23 -6
28 18 2 32 9 32 15 0 16 20 -14 20 -30z m2540 17 c0 -11 -4 -20 -9 -20 -5 0
-7 9 -4 20 3 11 7 20 9 20 2 0 4 -9 4 -20z m-3753 -82 c-2 -18 -4 -6 -4 27 0
33 2 48 4 33 2 -15 2 -42 0 -60z m400 50 c-3 -7 -5 -2 -5 12 0 14 2 19 5 13 2
-7 2 -19 0 -25z m953 22 c0 -5 -5 -10 -11 -10 -5 0 -7 5 -4 10 3 6 8 10 11 10
2 0 4 -4 4 -10z m3023 3 c-7 -2 -19 -2 -25 0 -7 3 -2 5 12 5 14 0 19 -2 13 -5z
m-2306 -25 c-3 -8 -6 -5 -6 6 -1 11 2 17 5 13 3 -3 4 -12 1 -19z m-1763 -3 c3
-8 1 -15 -4 -15 -6 0 -10 7 -10 15 0 8 2 15 4 15 2 0 6 -7 10 -15z m1836 5 c0
-5 -15 -9 -32 -9 l-33 1 30 8 c17 4 31 8 33 9 1 0 2 -3 2 -9z m967 4 c-3 -3
-12 -4 -19 -1 -8 3 -5 6 6 6 11 1 17 -2 13 -5z m-924 -11 c-7 -2 -19 -2 -25 0
-7 3 -2 5 12 5 14 0 19 -2 13 -5z m1577 -8 c0 -8 -4 -15 -8 -15 -5 0 -9 7 -9
15 0 8 4 15 9 15 4 0 8 -7 8 -15z m-2807 -2 c-7 -2 -21 -2 -30 0 -10 3 -4 5
12 5 17 0 24 -2 18 -5z m2417 -8 c0 -8 -4 -15 -10 -15 -5 0 -10 7 -10 15 0 8
5 15 10 15 6 0 10 -7 10 -15z m255 6 c3 -5 2 -12 -3 -15 -5 -3 -9 1 -9 9 0 17
3 19 12 6z m-3189 -61 c30 -10 32 -13 19 -26 -15 -16 -40 -10 -30 7 4 5 -6 9
-20 9 -21 0 -26 4 -21 16 3 9 7 25 7 37 2 17 3 16 6 -5 3 -20 13 -30 39 -38z
m1869 50 c4 -6 -7 -10 -25 -10 -18 0 -29 4 -25 10 3 6 15 10 25 10 10 0 22 -4
25 -10z m241 1 c-8 -13 -176 -14 -176 -1 0 6 36 10 91 10 50 0 88 -4 85 -9z
m161 3 c-3 -4 -2 -15 4 -25 8 -15 6 -17 -7 -12 -12 4 -15 3 -10 -5 5 -8 0 -12
-13 -12 -12 0 -20 3 -20 8 1 4 1 16 -1 27 l-1 20 -9 -20 c-8 -19 -9 -19 -9 3
-1 19 4 22 36 22 20 0 33 -3 30 -6z m321 -1 c-16 -2 -40 -2 -55 0 -16 2 -3 4
27 4 30 0 43 -2 28 -4z m-2074 -14 c-6 -10 -44 -7 -44 3 0 4 11 7 24 6 14 -1
23 -6 20 -9z m1249 4 c-24 -2 -62 -2 -85 0 -24 2 -5 4 42 4 47 0 66 -2 43 -4z
m2035 -7 c-13 -14 -28 -12 -28 5 0 5 9 9 20 9 17 0 19 -2 8 -14z m-3858 -11
c0 -17 -25 -20 -35 -5 -3 6 1 7 9 4 9 -3 16 -1 16 5 0 6 2 11 5 11 3 0 5 -7 5
-15z m827 9 c-3 -3 -12 -4 -19 -1 -8 3 -5 6 6 6 11 1 17 -2 13 -5z m2550 -16
c1 -12 -3 -28 -9 -35 -7 -9 -7 -13 1 -13 6 0 11 -13 11 -29 0 -21 -6 -30 -21
-34 -19 -5 -20 -4 -5 12 9 10 16 22 16 27 0 5 -5 2 -10 -6 -6 -10 -10 -11 -10
-2 0 6 -5 12 -11 12 -5 0 -8 -4 -4 -9 3 -5 1 -13 -5 -16 -6 -4 -9 -1 -8 6 2 7
-5 15 -16 17 -11 2 -16 0 -12 -7 5 -7 -3 -7 -24 0 -17 6 -42 8 -56 5 -29 -8
-54 8 -54 33 0 14 2 14 10 1 5 -8 10 -10 10 -4 0 5 -5 15 -11 21 -9 9 3 12 49
11 50 -1 61 -4 65 -19 7 -25 27 -24 27 1 0 16 7 20 30 20 22 0 28 4 24 15 -4
8 -2 15 3 15 5 0 9 -10 10 -22z m-1774 5 c-7 -2 -19 -2 -25 0 -7 3 -2 5 12 5
14 0 19 -2 13 -5z m80 0 c-7 -2 -21 -2 -30 0 -10 3 -4 5 12 5 17 0 24 -2 18
-5z m164 1 c-7 -7 -138 -7 -145 1 -3 3 30 5 73 5 43 0 76 -3 72 -6z m71 -1
c-10 -2 -26 -2 -35 0 -10 3 -2 5 17 5 19 0 27 -2 18 -5z m1175 0 c-7 -2 -19
-2 -25 0 -7 3 -2 5 12 5 14 0 19 -2 13 -5z m-3673 -19 c0 -8 -4 -12 -10 -9 -5
3 -10 10 -10 16 0 5 5 9 10 9 6 0 10 -7 10 -16z m1319 -72 c0 -47 -3 -69 -8
-57 -8 19 -8 19 -18 0 -9 -15 -12 -6 -15 49 -1 37 0 73 4 80 5 7 8 4 8 -7 0
-10 4 -16 10 -12 5 3 6 13 3 22 -4 11 -3 14 5 9 8 -5 12 -35 11 -84z m2796 72
c-11 -8 -25 -12 -33 -9 -7 2 -15 -2 -19 -10 -5 -13 -7 -13 -18 2 -16 22 -4 28
53 30 33 1 35 0 17 -13z m-3135 -8 c0 -2 -7 -7 -16 -10 -8 -3 -12 -2 -9 4 6
10 25 14 25 6z m3030 -58 c0 -5 5 -6 12 -2 7 4 8 3 4 -5 -6 -8 -12 -9 -20 -2
-7 6 -15 9 -18 6 -2 -3 -5 1 -5 9 0 8 6 12 14 9 7 -3 13 -9 13 -15z m295 -6
c-3 -3 -11 0 -18 7 -9 10 -8 11 6 5 10 -3 15 -9 12 -12z m-496 -21 c-9 -26
-12 -28 -34 -17 l-25 11 28 6 c15 4 23 7 19 8 -11 1 2 21 13 21 5 0 4 -13 -1
-29z m46 9 c3 -5 -1 -10 -9 -10 -9 0 -16 5 -16 10 0 6 4 10 9 10 6 0 13 -4 16
-10z m135 -4 c0 -3 -4 -8 -10 -11 -5 -3 -10 -1 -10 4 0 6 5 11 10 11 6 0 10
-2 10 -4z m-4115 -15 c3 -5 2 -12 -3 -15 -5 -3 -9 1 -9 9 0 17 3 19 12 6z m78
-15 c9 -5 31 -6 47 -4 17 3 30 0 30 -5 0 -5 8 -6 18 -2 25 12 146 8 150 -5 2
-5 11 -10 20 -10 15 -1 15 -2 2 -9 -9 -5 -34 -6 -60 -1 -59 12 -103 12 -96 1
7 -11 -19 -22 -29 -13 -8 8 -14 8 -102 11 -35 0 -63 5 -63 11 0 5 15 8 33 7
17 -1 32 2 32 8 0 5 -7 8 -17 7 -9 -2 -19 1 -22 7 -7 11 29 9 57 -3z m3977 0
c0 -2 -7 -7 -16 -10 -8 -3 -12 -2 -9 4 6 10 25 14 25 6z m-3650 -48 c0 -5 -8
-8 -17 -8 -15 0 -16 2 -3 10 12 8 12 10 -5 10 -16 0 -17 2 -5 10 14 8 29 -3
30 -22z m4260 6 c0 -2 -7 -4 -15 -4 -8 0 -15 4 -15 10 0 5 7 7 15 4 8 -4 15
-8 15 -10z m-4112 -1 c-10 -2 -26 -2 -35 0 -10 3 -2 5 17 5 19 0 27 -2 18 -5z
m106 -12 c4 -5 -3 -7 -14 -4 -23 6 -26 13 -6 13 8 0 17 -4 20 -9z m-584 -11
c0 -5 -18 -10 -41 -10 -22 0 -38 -3 -35 -8 2 -4 -11 -8 -30 -8 -39 -1 -39 -1
-18 20 17 18 124 23 124 6z m210 0 c0 -6 -28 -9 -67 -8 l-68 1 55 7 c30 4 61
7 68 8 6 1 12 -2 12 -8z m2578 3 c-10 -2 -26 -2 -35 0 -10 3 -2 5 17 5 19 0
27 -2 18 -5z m-2738 -33 c18 -12 2 -12 -25 0 -13 6 -15 9 -5 9 8 0 22 -4 30
-9z m2900 0 c0 -11 -33 -12 -105 0 -48 7 -48 7 28 9 45 0 77 -3 77 -9z m1427
4 c-3 -3 -12 -4 -19 -1 -8 3 -5 6 6 6 11 1 17 -2 13 -5z m73 2 c0 -3 -4 -8
-10 -11 -5 -3 -10 -1 -10 4 0 6 5 11 10 11 6 0 10 -2 10 -4z m-1677 -13 c-7
-2 -21 -2 -30 0 -10 3 -4 5 12 5 17 0 24 -2 18 -5z m1214 -18 c-5 -16 -37 -18
-37 -3 0 8 9 14 20 14 11 0 19 -5 17 -11z m203 -9 c0 -3 -4 -8 -10 -11 -5 -3
-10 -1 -10 4 0 6 5 11 10 11 6 0 10 -2 10 -4z m-1525 -24 c-3 -3 -11 0 -18 7
-9 10 -8 11 6 5 10 -3 15 -9 12 -12z m1488 11 c-7 -2 -19 -2 -25 0 -7 3 -2 5
12 5 14 0 19 -2 13 -5z m314 -9 c-3 -3 -12 -4 -19 -1 -8 3 -5 6 6 6 11 1 17
-2 13 -5z m-1640 -20 c-3 -3 -12 -4 -19 -1 -8 3 -5 6 6 6 11 1 17 -2 13 -5z
m753 -44 c0 -5 -4 -10 -10 -10 -5 0 -10 5 -10 10 0 6 5 10 10 10 6 0 10 -4 10
-10z"/>
<path d="M462 530 c0 -19 2 -27 5 -17 2 9 2 25 0 35 -3 9 -5 1 -5 -18z"/>
<path d="M352 500 c0 -14 2 -19 5 -12 2 6 2 18 0 25 -3 6 -5 1 -5 -13z"/>
<path d="M370 169 c0 -5 5 -7 10 -4 6 3 10 8 10 11 0 2 -4 4 -10 4 -5 0 -10
-5 -10 -11z"/>
<path d="M2246 1578 c-3 -12 0 -25 6 -29 8 -5 6 -13 -6 -25 -11 -10 -20 -13
-24 -7 -10 14 -42 24 -42 13 0 -6 -5 -10 -11 -10 -6 0 -9 7 -5 15 3 8 1 15 -4
15 -6 0 -10 -8 -10 -18 0 -10 -5 -23 -10 -28 -7 -7 -8 -19 -1 -37 6 -15 7 -27
2 -27 -5 0 -11 -14 -15 -31 -5 -25 -9 -29 -26 -24 -14 4 -20 2 -20 -8 0 -9 -6
-18 -12 -20 -7 -3 6 -6 30 -6 34 -1 42 2 42 17 1 16 1 16 11 -1 9 -16 20 -17
92 -12 102 8 120 13 113 31 -3 8 -1 14 4 14 6 0 10 -10 10 -22 0 -17 3 -19 9
-9 5 7 10 9 12 3 2 -5 121 -14 289 -21 157 -6 294 -14 305 -17 14 -3 23 2 32
21 10 22 9 27 -8 36 -11 5 -41 9 -67 8 -27 -1 -54 1 -60 5 -14 8 -16 36 -3 36
5 0 11 9 14 20 3 13 1 18 -6 13 -6 -4 -8 0 -4 10 4 10 2 17 -5 17 -6 0 -6 6 3
16 11 13 10 17 -4 25 -9 6 -17 17 -17 26 0 9 -6 13 -14 10 -8 -3 -17 1 -20 8
-4 12 -54 14 -289 14 -284 0 -285 0 -291 -21z m47 -16 c-18 -5 -27 3 -18 17 4
7 10 7 20 -2 11 -10 11 -13 -2 -15z m7 -17 c0 -8 -34 -45 -42 -45 -5 0 -8 5
-8 11 0 5 4 8 9 5 5 -3 11 3 14 14 4 17 27 30 27 15z m86 -67 c4 -7 4 -10 -1
-6 -4 4 -14 3 -22 -3 -8 -8 -13 -8 -13 -1 0 6 6 13 13 15 6 3 13 6 14 6 1 1 5
-5 9 -11z m-47 -67 c0 -10 -2 -11 -6 -3 -2 6 -9 10 -14 6 -12 -7 -31 5 -24 16
9 14 45 -1 44 -19z m48 2 c0 -16 -1 -20 -4 -10 -2 9 -9 15 -14 12 -10 -7 -12
8 -2 18 12 13 19 7 20 -20z m306 -34 c3 -11 0 -16 -8 -12 -19 7 -26 30 -10 30
8 0 16 -8 18 -18z"/>
<path d="M2216 1582 c-3 -5 1 -9 9 -9 8 0 12 4 9 9 -3 4 -7 8 -9 8 -2 0 -6 -4
-9 -8z"/>
<path d="M2210 1549 c0 -5 5 -7 10 -4 6 3 10 8 10 11 0 2 -4 4 -10 4 -5 0 -10
-5 -10 -11z"/>
<path d="M4710 1458 c0 -23 14 -33 47 -35 53 -3 52 23 -1 31 -8 1 -19 5 -22 9
-11 11 -24 8 -24 -5z"/>
<path d="M4680 1430 c0 -5 5 -10 10 -10 6 0 10 5 10 10 0 6 -4 10 -10 10 -5 0
-10 -4 -10 -10z"/>
<path d="M4740 1409 c0 -5 5 -7 10 -4 6 3 10 8 10 11 0 2 -4 4 -10 4 -5 0 -10
-5 -10 -11z"/>
<path d="M5035 1410 c4 -6 11 -8 16 -5 14 9 11 15 -7 15 -8 0 -12 -5 -9 -10z"/>
<path d="M4773 1376 c4 -11 1 -13 -10 -9 -10 4 -14 2 -11 -7 2 -8 18 -14 34
-15 16 0 33 -4 37 -10 5 -6 6 -2 3 8 -3 10 -6 25 -6 33 0 8 -10 14 -26 14 -19
0 -25 -4 -21 -14z"/>
<path d="M2055 1191 c-6 -11 9 -23 19 -14 9 9 7 23 -3 23 -6 0 -12 -4 -16 -9z"/>
<path d="M3060 1140 c0 -5 4 -10 9 -10 6 0 13 5 16 10 3 6 -1 10 -9 10 -9 0
-16 -4 -16 -10z"/>
<path d="M3900 1035 c0 -8 7 -15 15 -15 8 0 15 7 15 15 0 8 -7 15 -15 15 -8 0
-15 -7 -15 -15z"/>
<path d="M3965 1000 l-20 -9 20 0 c11 0 29 4 40 9 l20 9 -20 0 c-11 0 -29 -4
-40 -9z"/>
<path d="M4260 1000 c0 -5 5 -10 11 -10 5 0 7 5 4 10 -3 6 -8 10 -11 10 -2 0
-4 -4 -4 -10z"/>
<path d="M3785 975 c0 -15 5 -23 12 -21 6 3 14 -3 17 -12 2 -9 4 -3 3 13 -2
27 -12 44 -27 45 -3 0 -5 -11 -5 -25z"/>
<path d="M3856 958 c3 -4 9 -8 15 -8 5 0 9 4 9 8 0 5 -7 9 -15 9 -8 0 -12 -4
-9 -9z"/>
<path d="M2590 864 l0 -85 48 3 47 3 3 83 3 82 -51 0 -50 0 0 -86z"/>
<path d="M4078 911 c-2 -22 0 -37 3 -35 4 2 9 0 11 -5 5 -16 73 13 76 33 5 24
-5 32 -49 40 -37 6 -37 6 -41 -33z m82 9 c0 -5 -9 -10 -21 -10 -11 0 -17 5
-14 10 3 6 13 10 21 10 8 0 14 -4 14 -10z"/>
<path d="M4690 940 c0 -5 5 -10 10 -10 6 0 10 5 10 10 0 6 -4 10 -10 10 -5 0
-10 -4 -10 -10z"/>
<path d="M1711 860 l2 -80 38 0 39 0 0 80 0 80 -41 0 -40 0 2 -80z"/>
<path d="M1836 924 c-9 -23 -8 -24 19 -24 18 0 25 5 25 20 0 24 -35 28 -44 4z"/>
<path d="M1890 920 c0 -15 7 -20 25 -20 18 0 25 5 25 20 0 15 -7 20 -25 20
-18 0 -25 -5 -25 -20z"/>
<path d="M1950 920 c0 -13 7 -20 20 -20 13 0 20 7 20 20 0 13 -7 20 -20 20
-13 0 -20 -7 -20 -20z"/>
<path d="M2730 921 c0 -16 6 -21 26 -21 33 0 30 33 -4 38 -17 3 -22 -2 -22
-17z"/>
<path d="M2790 920 c0 -19 42 -30 123 -30 40 0 47 3 47 20 0 15 -7 20 -27 21
-143 6 -143 6 -143 -11z"/>
<path d="M1589 902 c0 -15 -2 -48 -4 -74 -4 -47 -3 -48 26 -48 20 0 29 5 29
16 0 8 -4 12 -10 9 -14 -9 -13 48 1 62 9 9 6 11 -12 7 -13 -2 -18 -2 -11 2 17
8 15 41 -3 48 -11 4 -15 -2 -16 -22z"/>
<path d="M3030 908 c0 -19 2 -20 10 -8 13 19 13 30 0 30 -5 0 -10 -10 -10 -22z"/>
<path d="M3094 904 c3 -9 6 -18 6 -20 0 -2 20 -4 45 -4 38 0 45 3 45 20 0 17
-7 20 -51 20 -43 0 -50 -3 -45 -16z"/>
<path d="M3200 901 c0 -16 6 -21 26 -21 33 0 30 33 -4 38 -17 3 -22 -2 -22
-17z"/>
<path d="M3270 890 c0 -24 -4 -30 -22 -31 -22 -1 -22 -1 2 -9 l25 -7 -30 -5
-30 -5 28 -2 c21 -1 27 -6 27 -23 0 -13 4 -28 8 -34 8 -13 93 -24 86 -12 -3 5
13 8 35 8 23 0 41 -4 41 -10 0 -15 50 -12 51 3 1 13 1 74 0 118 -1 20 -7 28
-26 31 -23 5 -25 2 -25 -28 0 -33 -1 -34 -40 -34 -39 0 -40 1 -40 35 0 35 0
35 -45 35 -43 0 -45 -1 -45 -30z m153 -57 c-13 -2 -33 -2 -45 0 -13 2 -3 4 22
4 25 0 35 -2 23 -4z m13 -33 c0 -16 -7 -20 -38 -20 -43 0 -53 19 -10 21 l27 1
-30 8 c-29 7 -28 8 10 9 34 1 41 -2 41 -19z"/>
<path d="M4332 895 c-7 -8 -10 -20 -6 -26 3 -6 8 -31 10 -56 4 -41 3 -45 -15
-40 -10 2 -25 1 -32 -4 -10 -6 -8 -9 9 -9 18 0 22 -5 22 -33 0 -32 1 -32 41
-29 28 3 44 0 50 -9 6 -10 9 -10 9 -2 0 7 15 17 33 23 l32 10 -32 -3 c-18 -2
-33 0 -33 5 0 4 11 8 24 8 14 0 27 4 30 8 3 5 -7 8 -22 7 -15 -2 -19 0 -8 2
16 4 18 12 13 65 -5 59 -16 85 -24 60 -3 -6 -9 -10 -13 -7 -5 3 -7 12 -3 20 3
10 -1 15 -13 15 -11 0 -28 2 -39 5 -11 3 -26 -2 -33 -10z m85 -131 c-3 -3 -12
-4 -19 -1 -8 3 -5 6 6 6 11 1 17 -2 13 -5z m-29 -31 c-10 -2 -26 -2 -35 0 -10
3 -2 5 17 5 19 0 27 -2 18 -5z m10 -20 c-10 -2 -28 -2 -40 0 -13 2 -5 4 17 4
22 1 32 -1 23 -4z"/>
<path d="M4281 884 c0 -11 3 -14 6 -6 3 7 2 16 -1 19 -3 4 -6 -2 -5 -13z"/>
<path d="M3560 881 c0 -19 28 -29 96 -36 60 -6 72 -4 77 9 3 8 1 19 -6 23 -17
10 -167 15 -167 4z"/>
<path d="M1450 870 c0 -4 8 -11 18 -13 16 -4 16 -5 0 -6 -30 -2 -23 -48 7 -53
25 -5 36 7 14 14 -17 6 -1 48 18 48 24 0 12 6 -24 13 -18 4 -33 2 -33 -3z"/>
<path d="M2798 873 c34 -2 90 -2 125 0 34 2 6 3 -63 3 -69 0 -97 -1 -62 -3z"/>
<path d="M3789 875 c-4 -3 -5 -15 -2 -25 4 -14 16 -20 47 -23 38 -3 37 -4 -11
-5 -42 -2 -51 -5 -47 -17 5 -11 20 -15 58 -13 l51 1 -45 7 -45 7 43 1 c40 2
42 4 42 32 0 19 -5 30 -14 30 -7 0 -26 3 -42 6 -16 3 -32 3 -35 -1z"/>
<path d="M4192 860 c0 -14 2 -19 5 -12 2 6 2 18 0 25 -3 6 -5 1 -5 -13z"/>
<path d="M3123 863 c9 -2 25 -2 35 0 9 3 1 5 -18 5 -19 0 -27 -2 -17 -5z"/>
<path d="M4135 860 c-3 -5 -1 -10 4 -10 6 0 11 5 11 10 0 6 -2 10 -4 10 -3 0
-8 -4 -11 -10z"/>
<path d="M2728 853 c7 -3 16 -2 19 1 4 3 -2 6 -13 5 -11 0 -14 -3 -6 -6z"/>
<path d="M2808 853 c6 -2 18 -2 25 0 6 3 1 5 -13 5 -14 0 -19 -2 -12 -5z"/>
<path d="M3930 840 c0 -11 7 -20 15 -20 17 0 18 2 9 24 -9 23 -24 20 -24 -4z"/>
<path d="M3980 836 c0 -19 -6 -26 -27 -29 l-28 -4 30 -3 30 -2 -30 -8 -30 -8
30 -2 30 -2 -30 -8 -30 -8 28 -1 c20 -1 27 -6 27 -21 0 -15 7 -20 25 -20 34 0
40 3 39 18 -1 6 3 12 10 12 6 0 4 5 -4 10 -12 8 -12 10 5 10 17 0 17 2 5 10
-12 8 -11 10 6 10 15 0 23 -9 30 -37 7 -28 15 -39 32 -41 18 -3 22 1 22 21 0
21 6 26 38 33 20 4 30 9 21 11 -11 3 -15 12 -11 28 3 19 0 25 -13 25 -12 0
-16 -6 -12 -20 3 -13 0 -20 -9 -20 -8 0 -14 10 -14 24 0 23 -16 36 -46 36 -8
0 -14 -10 -14 -25 0 -37 -38 -35 -42 3 -2 22 -8 28 -35 30 -29 3 -33 0 -33
-22z m203 -63 c-7 -2 -19 -2 -25 0 -7 3 -2 5 12 5 14 0 19 -2 13 -5z"/>
<path d="M1495 830 c3 -5 8 -10 11 -10 2 0 4 5 4 10 0 6 -5 10 -11 10 -5 0 -7
-4 -4 -10z"/>
<path d="M3610 830 c58 -8 156 -13 149 -6 -2 2 -49 6 -104 9 -72 4 -85 3 -45
-3z"/>
<path d="M2958 823 c7 -3 16 -2 19 1 4 3 -2 6 -13 5 -11 0 -14 -3 -6 -6z"/>
<path d="M3573 813 c9 -2 25 -2 35 0 9 3 1 5 -18 5 -19 0 -27 -2 -17 -5z"/>
<path d="M4280 800 c0 -11 5 -20 10 -20 6 0 10 9 10 20 0 11 -4 20 -10 20 -5
0 -10 -9 -10 -20z"/>
<path d="M3663 803 c15 -2 37 -2 50 0 12 2 0 4 -28 4 -27 0 -38 -2 -22 -4z"/>
<path d="M3028 793 c7 -3 16 -2 19 1 4 3 -2 6 -13 5 -11 0 -14 -3 -6 -6z"/>
<path d="M3658 783 c7 -3 16 -2 19 1 4 3 -2 6 -13 5 -11 0 -14 -3 -6 -6z"/>
<path d="M3770 770 c21 -7 18 -8 -20 -11 -42 -2 -43 -2 -10 -6 19 -3 41 -9 47
-15 9 -7 13 -7 13 1 0 6 8 11 18 12 14 0 14 2 -3 8 -19 8 -18 9 5 13 14 3 3 5
-25 6 -39 0 -44 -2 -25 -8z"/>
<path d="M2530 760 c0 -5 5 -10 10 -10 6 0 10 5 10 10 0 6 -4 10 -10 10 -5 0
-10 -4 -10 -10z"/>
<path d="M3588 763 c6 -2 18 -2 25 0 6 3 1 5 -13 5 -14 0 -19 -2 -12 -5z"/>
<path d="M1355 439 c-4 -6 -5 -12 -2 -15 2 -3 7 2 10 11 7 17 1 20 -8 4z"/>
<path d="M4198 413 c6 -2 18 -2 25 0 6 3 1 5 -13 5 -14 0 -19 -2 -12 -5z"/>
<path d="M4065 140 c-35 -14 8 -23 73 -14 l57 7 -40 8 c-50 10 -65 10 -90 -1z"/>
<path d="M4218 143 c6 -2 18 -2 25 0 6 3 1 5 -13 5 -14 0 -19 -2 -12 -5z"/>
<path d="M3483 113 c-7 -3 -13 -9 -13 -15 0 -6 6 -6 15 2 8 6 19 9 24 6 5 -4
12 -3 15 2 5 9 -22 12 -41 5z"/>
<path d="M3993 113 c9 -2 23 -2 30 0 6 3 -1 5 -18 5 -16 0 -22 -2 -12 -5z"/>
<path d="M3840 61 c0 -12 35 -20 50 -11 8 5 7 9 -5 14 -24 9 -45 8 -45 -3z"/>
<path d="M3301 16 c-10 -11 -7 -14 13 -12 18 1 22 4 14 14 -13 15 -13 15 -27
-2z"/>
<path d="M3658 3 c7 -3 16 -2 19 1 4 3 -2 6 -13 5 -11 0 -14 -3 -6 -6z"/>
</g>
</svg>
